<svg id="Calque_1" data-name="Calque 1" xmlns="http://www.w3.org/2000/svg" viewBox="0 0 873.15 81.3">
  <g>
    <path d="M24.21,23.13V44.86H58.68V56.08H24.21V83.41H11V12H63.07V23.13Z" transform="translate(-10.95 -10.99)" fill="#20bae5"/>
    <path d="M129.47,72.3V83.41H75.92V12H128V23.13H89.18V41.7h34.48V52.61H89.18V72.3Z" transform="translate(-10.95 -10.99)" fill="#20bae5"/>
    <path d="M144.26,12h13.26V72.19h37.33V83.41H144.26Z" transform="translate(-10.95 -10.99)" fill="#20bae5"/>
    <path d="M205.36,12h13.26v71.4H205.36Z" transform="translate(-10.95 -10.99)" fill="#20bae5"/>
    <path d="M283.44,15.07A23.45,23.45,0,0,1,294,23.85a24.53,24.53,0,0,1,3.68,13.56A24.6,24.6,0,0,1,294,50.93a23.34,23.34,0,0,1-10.55,8.82,39.54,39.54,0,0,1-16.17,3.06H251.15v20.6H237.89V12h29.38A39.54,39.54,0,0,1,283.44,15.07Zm-3.62,32.85q4.49-3.68,4.48-10.51c0-4.55-1.49-8.06-4.48-10.5s-7.38-3.68-13.16-3.68H251.15V51.59h15.51Q275.33,51.59,279.82,47.92Z" transform="translate(-10.95 -10.99)" fill="#20bae5"/>
    <path d="M364.48,72.3V83.41H310.93V12h52.12V23.13H324.19V41.7h34.47V52.61H324.19V72.3Z" transform="translate(-10.95 -10.99)" fill="#20bae5"/>
    <path d="M467.39,52.76A18.05,18.05,0,0,1,470.86,64q0,9.28-7.14,14.34t-20.81,5H407.42V12h33.45q12.64,0,19.48,5a15.9,15.9,0,0,1,6.84,13.62A17.9,17.9,0,0,1,464.74,40,16.82,16.82,0,0,1,458,46.29,18.85,18.85,0,0,1,467.39,52.76ZM420.68,22.42V42.1h18.76q6.94,0,10.66-2.49a8.25,8.25,0,0,0,3.73-7.3,8.33,8.33,0,0,0-3.73-7.39q-3.72-2.51-10.66-2.5ZM457.5,62.71q0-10.3-15.4-10.3H420.68V73H442.1Q457.49,73,457.5,62.71Z" transform="translate(-10.95 -10.99)" fill="#20bae5"/>
    <path d="M531.75,83.41,517.17,62.5a26.14,26.14,0,0,1-2.76.11H498.3v20.8H485V12h29.37a39.54,39.54,0,0,1,16.17,3.06,23.53,23.53,0,0,1,10.56,8.78,24.6,24.6,0,0,1,3.67,13.56,24.16,24.16,0,0,1-3.93,13.87A23.3,23.3,0,0,1,529.61,60L546,83.41ZM527,26.91q-4.49-3.68-13.16-3.68H498.3V51.69h15.5q8.67,0,13.16-3.72t4.49-10.56C531.45,32.86,530,29.35,527,26.91Z" transform="translate(-10.95 -10.99)" fill="#20bae5"/>
    <path d="M605.91,66.89h-35.7l-7,16.52H549.5L581.63,12h13.06l32.23,71.4H613.05Zm-4.39-10.4L588.06,25.27,574.69,56.49Z" transform="translate(-10.95 -10.99)" fill="#20bae5"/>
    <path d="M699.44,12v71.4H688.52L649.15,35.07V83.41H636V12h10.92l39.37,48.35V12Z" transform="translate(-10.95 -10.99)" fill="#20bae5"/>
    <path d="M718.61,12h31.22a44.73,44.73,0,0,1,20.29,4.44A32.87,32.87,0,0,1,783.9,29a35.5,35.5,0,0,1,4.89,18.71,35.51,35.51,0,0,1-4.89,18.72A32.87,32.87,0,0,1,770.12,79a44.73,44.73,0,0,1-20.29,4.43H718.61Zm30.61,60.18a30.4,30.4,0,0,0,13.82-3,21.68,21.68,0,0,0,9.18-8.57,25.37,25.37,0,0,0,3.21-12.91,25.36,25.36,0,0,0-3.21-12.9A21.68,21.68,0,0,0,763,26.24a30.4,30.4,0,0,0-13.82-3H731.87v49Z" transform="translate(-10.95 -10.99)" fill="#20bae5"/>
    <path d="M816.53,79.69a35.22,35.22,0,0,1-13.77-13.16,36.16,36.16,0,0,1-5-18.82,36.12,36.12,0,0,1,5-18.81,35.22,35.22,0,0,1,13.77-13.16,43.19,43.19,0,0,1,39.38,0,35.36,35.36,0,0,1,13.77,13.1,36.11,36.11,0,0,1,5,18.87,36.06,36.06,0,0,1-5,18.87,35.31,35.31,0,0,1-13.77,13.11,43.27,43.27,0,0,1-39.38,0Zm32.54-10.1a23.25,23.25,0,0,0,9-9,25.8,25.8,0,0,0,3.26-12.91,25.79,25.79,0,0,0-3.26-12.9,23.34,23.34,0,0,0-9-9,27.33,27.33,0,0,0-25.7,0,23.34,23.34,0,0,0-9,9,25.69,25.69,0,0,0-3.26,12.9,25.7,25.7,0,0,0,3.26,12.91,23.25,23.25,0,0,0,9,9,27.25,27.25,0,0,0,25.7,0Z" transform="translate(-10.95 -10.99)" fill="#20bae5"/>
  </g>
  <g>
    <path d="M32.13,29.49V51.22H66.61V62.44H32.13V89.78H18.87V18.38H71V29.49Z" transform="translate(-10.95 -10.99)" fill="none" stroke="#fc5253" stroke-miterlimit="10" stroke-width="3"/>
    <path d="M137.39,78.66V89.78H83.84V18.38H136V29.49H97.1V48.06h34.48V59H97.1V78.66Z" transform="translate(-10.95 -10.99)" fill="none" stroke="#fc5253" stroke-miterlimit="10" stroke-width="3"/>
    <path d="M152.18,18.38h13.26V78.56h37.34V89.78h-50.6Z" transform="translate(-10.95 -10.99)" fill="none" stroke="#fc5253" stroke-miterlimit="10" stroke-width="3"/>
    <path d="M213.28,18.38h13.26v71.4H213.28Z" transform="translate(-10.95 -10.99)" fill="none" stroke="#fc5253" stroke-miterlimit="10" stroke-width="3"/>
    <path d="M291.36,21.44a23.51,23.51,0,0,1,10.56,8.77,24.52,24.52,0,0,1,3.67,13.56,24.6,24.6,0,0,1-3.67,13.52,23.42,23.42,0,0,1-10.56,8.82,39.54,39.54,0,0,1-16.17,3.06H259.08V89.78H245.82V18.38h29.37A39.54,39.54,0,0,1,291.36,21.44Zm-3.62,32.84q4.49-3.68,4.49-10.51t-4.49-10.5q-4.49-3.68-13.16-3.67h-15.5V58h15.5Q283.25,58,287.74,54.28Z" transform="translate(-10.95 -10.99)" fill="none" stroke="#fc5253" stroke-miterlimit="10" stroke-width="3"/>
    <path d="M372.4,78.66V89.78H318.85V18.38H371V29.49H332.11V48.06h34.48V59H332.11V78.66Z" transform="translate(-10.95 -10.99)" fill="none" stroke="#fc5253" stroke-miterlimit="10" stroke-width="3"/>
    <path d="M475.32,59.12a18.06,18.06,0,0,1,3.46,11.28q0,9.27-7.14,14.33t-20.8,5h-35.5V18.38H448.8q12.65,0,19.48,4.94a15.91,15.91,0,0,1,6.83,13.62,17.88,17.88,0,0,1-2.45,9.38,16.76,16.76,0,0,1-6.73,6.33A18.92,18.92,0,0,1,475.32,59.12ZM428.6,28.78V48.47h18.77q6.93,0,10.66-2.5a8.25,8.25,0,0,0,3.72-7.3A8.33,8.33,0,0,0,458,31.28q-3.73-2.51-10.66-2.5Zm36.82,40.29q0-10.3-15.4-10.3H428.6v20.6H450Q465.43,79.37,465.42,69.07Z" transform="translate(-10.95 -10.99)" fill="none" stroke="#fc5253" stroke-miterlimit="10" stroke-width="3"/>
    <path d="M539.68,89.78,525.09,68.87c-.61.06-1.53.1-2.75.1H506.22V89.78H493V18.38h29.38a39.52,39.52,0,0,1,16.16,3.06,23.51,23.51,0,0,1,10.56,8.77,24.52,24.52,0,0,1,3.67,13.56,24.19,24.19,0,0,1-3.93,13.88,23.38,23.38,0,0,1-11.27,8.67L554,89.78Zm-4.8-56.51q-4.49-3.68-13.16-3.67h-15.5V58.05h15.5q8.67,0,13.16-3.72t4.49-10.56Q539.37,36.94,534.88,33.27Z" transform="translate(-10.95 -10.99)" fill="none" stroke="#fc5253" stroke-miterlimit="10" stroke-width="3"/>
    <path d="M613.83,73.25h-35.7l-7,16.53H557.42l32.13-71.4h13.06l32.23,71.4H621Zm-4.39-10.4L596,31.64,582.62,62.85Z" transform="translate(-10.95 -10.99)" fill="none" stroke="#fc5253" stroke-miterlimit="10" stroke-width="3"/>
    <path d="M707.36,18.38v71.4H696.45L657.08,41.43V89.78H643.92V18.38h10.91L694.2,66.72V18.38Z" transform="translate(-10.95 -10.99)" fill="none" stroke="#fc5253" stroke-miterlimit="10" stroke-width="3"/>
    <path d="M726.54,18.38h31.21a44.8,44.8,0,0,1,20.3,4.43,32.91,32.91,0,0,1,13.77,12.55,35.53,35.53,0,0,1,4.89,18.72,35.5,35.5,0,0,1-4.89,18.71,32.91,32.91,0,0,1-13.77,12.55,44.8,44.8,0,0,1-20.3,4.44H726.54Zm30.6,60.18a30.4,30.4,0,0,0,13.82-3A21.51,21.51,0,0,0,780.14,67a25.36,25.36,0,0,0,3.21-12.9,25.37,25.37,0,0,0-3.21-12.91A21.57,21.57,0,0,0,771,32.6a30.4,30.4,0,0,0-13.82-3H739.8v49Z" transform="translate(-10.95 -10.99)" fill="none" stroke="#fc5253" stroke-miterlimit="10" stroke-width="3"/>
    <path d="M824.46,86.05a35.09,35.09,0,0,1-13.77-13.16,36.06,36.06,0,0,1-5-18.81,36.07,36.07,0,0,1,5-18.82A35.09,35.09,0,0,1,824.46,22.1a43.25,43.25,0,0,1,39.37,0A35.18,35.18,0,0,1,877.6,35.21a36.06,36.06,0,0,1,5,18.87,36.11,36.11,0,0,1-5,18.87,35.22,35.22,0,0,1-13.77,13.1,43.16,43.16,0,0,1-39.37,0ZM857,76a23.25,23.25,0,0,0,9-9,25.66,25.66,0,0,0,3.26-12.9A25.72,25.72,0,0,0,866,41.17a23.25,23.25,0,0,0-9-9,27.25,27.25,0,0,0-25.7,0,23.16,23.16,0,0,0-9,9,25.73,25.73,0,0,0-3.27,12.91A25.67,25.67,0,0,0,822.32,67a23.16,23.16,0,0,0,9,9A27.25,27.25,0,0,0,857,76Z" transform="translate(-10.95 -10.99)" fill="none" stroke="#fc5253" stroke-miterlimit="10" stroke-width="3"/>
  </g>
</svg>
