<?xml version="1.0" encoding="utf-8"?>
<!-- Generator: Adobe Illustrator 24.2.0, SVG Export Plug-In . SVG Version: 6.00 Build 0)  -->
<svg version="1.1" xmlns="http://www.w3.org/2000/svg" xmlns:xlink="http://www.w3.org/1999/xlink" x="0px" y="0px"
	 viewBox="0 0 425.36 284.94" style="enable-background:new 0 0 425.36 284.94;" xml:space="preserve">
<style type="text/css">
	.st0{fill:#20BAE5;}
	.st1{fill:none;stroke:#FC5253;stroke-width:4;stroke-miterlimit:10;}
	.st2{fill:#FC5253;}
</style>
<g id="Calque_2">
</g>
<g id="Calque_1">
	<path class="st0" d="M61.33,58.76v53.6h104.1v33.88H61.33v94.55H21.29V25.19h157.39v33.57H61.33z"/>
	<g>
		<path class="st0" d="M341.47,148.23c6.98,9.14,10.47,20.48,10.47,34.03c0,18.69-7.19,33.11-21.56,43.27
			c-14.38,10.16-35.32,15.25-62.83,15.25H160.37V25.19h101.02c25.46,0,45.07,4.98,58.83,14.94c13.75,9.96,20.64,23.67,20.64,41.12
			c0,10.68-2.46,20.13-7.39,28.34c-4.93,8.21-11.7,14.58-20.33,19.1C325.04,132.58,334.49,139.1,341.47,148.23z M200.41,56.6v59.44
			h56.67c13.96,0,24.69-2.51,32.19-7.55c7.49-5.03,11.24-12.37,11.24-22.02c0-9.86-3.75-17.3-11.24-22.33
			c-7.5-5.03-18.22-7.55-32.19-7.55H200.41z M311.6,178.26c0-20.74-15.51-31.11-46.51-31.11h-64.68v62.22h64.68
			C296.09,209.37,311.6,199.01,311.6,178.26z"/>
	</g>
	<g>
		<path class="st1" d="M357.21,164.8c-6.99-9.13-16.43-15.65-28.34-19.55c8.62-4.52,15.4-10.88,20.33-19.1
			c4.93-8.21,7.39-17.66,7.39-28.34c0-17.45-6.88-31.15-20.64-41.11s-33.37-14.94-58.82-14.94H37.02v215.6h40.04v-94.55h99.04v94.55
			h107.19c27.51,0,48.45-5.08,62.83-15.25c14.37-10.16,21.56-24.58,21.56-43.27C367.68,185.29,364.18,173.94,357.21,164.8z
			 M176.1,128.93H77.06v-53.6h99.04V128.93z M216.14,73.17h56.67c13.96,0,24.69,2.52,32.19,7.55c7.49,5.03,11.24,12.47,11.24,22.33
			c0,9.65-3.75,16.99-11.24,22.02c-7.5,5.04-18.23,7.55-32.19,7.55h-56.67V73.17z M280.82,225.94h-64.68v-62.21h64.68
			c31,0,46.51,10.37,46.51,31.1C327.33,215.58,311.82,225.94,280.82,225.94z"/>
	</g>
	<circle class="st2" cx="401.24" cy="239.4" r="19.79"/>
</g>
</svg>
